<?xml version="1.0" encoding="utf-8"?>
<!-- Generator: Adobe Illustrator 21.0.2, SVG Export Plug-In . SVG Version: 6.00 Build 0)  -->
<svg version="1.1" id="Layer_1" xmlns="http://www.w3.org/2000/svg" xmlns:xlink="http://www.w3.org/1999/xlink" x="0px" y="0px"
	 viewBox="0 0 48 48" style="enable-background:new 0 0 48 48;" xml:space="preserve">
<style type="text/css">
	.st0{fill: #191970;}
</style>
<g>
	<path class="st0" d="M43,24c0,0,0,0.1,0,0.1h-1.7c0,0,0-0.1,0-0.1c0-9.5-7.7-17.2-17.2-17.2C17,6.8,10.9,11,8.2,17H13l0,0h0.2
		l4.3,11.5L21.7,17h2.1l-5.4,14h-2l-4.7-12.3h-6C8.1,10.8,15.4,5.1,24,5.1C34.5,5.1,43,13.6,43,24"/>
	<path class="st0" d="M40.4,29.3C40.4,29.3,40.4,29.3,40.4,29.3h-4.7l-2.6-3.9c0.9-0.3,1.6-0.7,2.2-1.4c0.6-0.7,0.9-1.6,0.9-2.7
		c0-1.4-0.4-2.4-1.3-3.1c-0.9-0.7-2.1-1.1-3.7-1.1h-5.2v14h2v-5.3h3.2l3.4,5.3v0h5.2C37.1,37,31,41.2,24,41.2
		c-9.5,0-17.2-7.7-17.2-17.2c0,0,0-0.1,0-0.2H5c0,0,0,0.1,0,0.2c0,10.4,8.5,19,19,19c8.6,0,15.9-5.8,18.2-13.7L40.4,29.3L40.4,29.3z
		 M31.2,23.9H28v-5.1h3c2.2,0,3.2,0.9,3.2,2.6c0,0.8-0.2,1.4-0.7,1.8C33.2,23.6,32.4,23.9,31.2,23.9"/>
</g>
</svg>
